<svg width="30" height="30" viewBox="0 0 30 30" fill="none" xmlns="http://www.w3.org/2000/svg">
<g clip-path="url(#clip0_407_31)">
<mask id="mask0_407_31" style="mask-type:luminance" maskUnits="userSpaceOnUse" x="0" y="0" width="30" height="30">
<path d="M29.446 12.2727H15.4688V18.0682H23.5142C22.7642 21.75 19.6279 23.8636 15.4688 23.8636C10.5597 23.8636 6.60512 19.9091 6.60512 15C6.60512 10.0909 10.5597 6.13637 15.4688 6.13637C17.5824 6.13637 19.4915 6.88637 20.9915 8.11364L25.3551 3.75C22.696 1.43182 19.2869 0 15.4688 0C7.15057 0 0.46875 6.68182 0.46875 15C0.46875 23.3182 7.15057 30 15.4688 30C22.9688 30 29.787 24.5455 29.787 15C29.787 14.1136 29.6506 13.1591 29.446 12.2727Z" fill="white"/>
</mask>
<g mask="url(#mask0_407_31)">
<path d="M-0.894897 23.8638V6.13647L10.696 15.0001L-0.894897 23.8638Z" fill="#FBBC05"/>
</g>
<mask id="mask1_407_31" style="mask-type:luminance" maskUnits="userSpaceOnUse" x="0" y="0" width="30" height="30">
<path d="M29.446 12.2727H15.4688V18.0682H23.5142C22.7642 21.75 19.6279 23.8636 15.4688 23.8636C10.5597 23.8636 6.60512 19.9091 6.60512 15C6.60512 10.0909 10.5597 6.13637 15.4688 6.13637C17.5824 6.13637 19.4915 6.88637 20.9915 8.11364L25.3551 3.75C22.696 1.43182 19.2869 0 15.4688 0C7.15057 0 0.46875 6.68182 0.46875 15C0.46875 23.3182 7.15057 30 15.4688 30C22.9688 30 29.787 24.5455 29.787 15C29.787 14.1136 29.6506 13.1591 29.446 12.2727Z" fill="white"/>
</mask>
<g mask="url(#mask1_407_31)">
<path d="M-0.894897 6.13648L10.696 15.0001L15.4688 10.841L31.8324 8.18194V-1.36353H-0.894897V6.13648Z" fill="#EA4335"/>
</g>
<mask id="mask2_407_31" style="mask-type:luminance" maskUnits="userSpaceOnUse" x="0" y="0" width="30" height="30">
<path d="M29.446 12.2727H15.4688V18.0682H23.5142C22.7642 21.75 19.6279 23.8636 15.4688 23.8636C10.5597 23.8636 6.60512 19.9091 6.60512 15C6.60512 10.0909 10.5597 6.13637 15.4688 6.13637C17.5824 6.13637 19.4915 6.88637 20.9915 8.11364L25.3551 3.75C22.696 1.43182 19.2869 0 15.4688 0C7.15057 0 0.46875 6.68182 0.46875 15C0.46875 23.3182 7.15057 30 15.4688 30C22.9688 30 29.787 24.5455 29.787 15C29.787 14.1136 29.6506 13.1591 29.446 12.2727Z" fill="white"/>
</mask>
<g mask="url(#mask2_407_31)">
<path d="M-0.894897 23.8638L19.5597 8.18194L24.946 8.86375L31.8324 -1.36353V31.3638H-0.894897V23.8638Z" fill="#34A853"/>
</g>
<mask id="mask3_407_31" style="mask-type:luminance" maskUnits="userSpaceOnUse" x="0" y="0" width="30" height="30">
<path d="M29.446 12.2727H15.4688V18.0682H23.5142C22.7642 21.75 19.6279 23.8636 15.4688 23.8636C10.5597 23.8636 6.60512 19.9091 6.60512 15C6.60512 10.0909 10.5597 6.13637 15.4688 6.13637C17.5824 6.13637 19.4915 6.88637 20.9915 8.11364L25.3551 3.75C22.696 1.43182 19.2869 0 15.4688 0C7.15057 0 0.46875 6.68182 0.46875 15C0.46875 23.3182 7.15057 30 15.4688 30C22.9688 30 29.787 24.5455 29.787 15C29.787 14.1136 29.6506 13.1591 29.446 12.2727Z" fill="white"/>
</mask>
<g mask="url(#mask3_407_31)">
<path d="M31.8324 31.3638L10.696 15.0001L7.96875 12.9547L31.8324 6.13647V31.3638Z" fill="#4285F4"/>
</g>
</g>
<defs>
<clipPath id="clip0_407_31">
<rect width="30" height="30" fill="white"/>
</clipPath>
</defs>
</svg>
