<svg width="72" height="72" viewBox="0 0 72 72" fill="none" xmlns="http://www.w3.org/2000/svg">
            <circle cx="36" cy="36" r="36" fill="#D5EFF9" />
            <g clipPath="url(#clip0_127_6)">
              <path
                d="M36 54C39.5601 54 43.0402 52.9443 46.0003 50.9665C48.9604 48.9886 51.2675 46.1774 52.6298 42.8883C53.9922 39.5992 54.3487 35.98 53.6541 32.4884C52.9596 28.9967 51.2453 25.7894 48.7279 23.2721C46.2106 20.7547 43.0033 19.0404 39.5116 18.3459C36.02 17.6513 32.4008 18.0078 29.1117 19.3702C25.8226 20.7326 23.0114 23.0397 21.0335 25.9997C19.0557 28.9598 18 32.4399 18 36C18.0052 40.7723 19.9032 45.3477 23.2778 48.7222C26.6523 52.0968 31.2277 53.9948 36 54ZM36 25.5C36.445 25.5 36.88 25.632 37.25 25.8792C37.62 26.1264 37.9084 26.4778 38.0787 26.889C38.249 27.3001 38.2936 27.7525 38.2068 28.189C38.12 28.6254 37.9057 29.0263 37.591 29.341C37.2763 29.6557 36.8754 29.87 36.439 29.9568C36.0025 30.0436 35.5501 29.999 35.139 29.8287C34.7278 29.6584 34.3764 29.3701 34.1292 29C33.882 28.63 33.75 28.195 33.75 27.75C33.75 27.1533 33.9871 26.581 34.409 26.159C34.831 25.7371 35.4033 25.5 36 25.5ZM34.5 33H36C36.7957 33 37.5587 33.3161 38.1213 33.8787C38.6839 34.4413 39 35.2044 39 36V45C39 45.3978 38.842 45.7794 38.5607 46.0607C38.2794 46.342 37.8978 46.5 37.5 46.5C37.1022 46.5 36.7206 46.342 36.4393 46.0607C36.158 45.7794 36 45.3978 36 45V36H34.5C34.1022 36 33.7206 35.842 33.4393 35.5607C33.158 35.2794 33 34.8978 33 34.5C33 34.1022 33.158 33.7207 33.4393 33.4393C33.7206 33.158 34.1022 33 34.5 33Z"
                fill="#00C0CC"
              />
            </g>
            <defs>
              <clipPath id="clip0_127_6">
                <rect width="36" height="36" fill="white" transform="translate(18 18)" />
              </clipPath>
            </defs>
          </svg>