<svg width="72" height="72" viewBox="0 0 72 72" fill="none" xmlns="http://www.w3.org/2000/svg">
            <circle cx="36" cy="36" r="36" fill="#D5EFF9" />
            <g clipPath="url(#clip0_127_8)">
              <path d="M36 28.5V18.69C37.3695 19.209 38.6295 20.0085 39.6975 21.075L44.9235 26.304C45.9915 27.3705 46.791 28.6305 47.31 30H37.5C36.672 30 36 29.3265 36 28.5ZM37.905 47.22C36.6855 48.4395 36 50.0925 36 51.8175V54H38.1825C39.9075 54 41.5605 53.3145 42.78 52.095L52.9905 41.8845C54.336 40.539 54.336 38.355 52.9905 37.0095C51.645 35.664 49.461 35.664 48.1155 37.0095L37.905 47.22ZM33 51.8175C33 49.2795 33.9885 46.893 35.7825 45.099L45.993 34.8885C46.5765 34.305 47.256 33.8565 47.9895 33.537C47.9835 33.357 47.976 33.1785 47.964 32.9985H37.5C35.019 32.9985 33 30.9795 33 28.4985V18.036C32.7585 18.0195 32.517 18 32.2725 18H25.5C21.3645 18 18 21.3645 18 25.5V46.5C18 50.6355 21.3645 54 25.5 54H33V51.8175Z" fill="#00C0CC" />
            </g>
            <defs>
              <clipPath id="clip0_127_8">
                <rect width="36" height="36" fill="white" transform="translate(18 18)" />
              </clipPath>
            </defs>
          </svg>