<svg xmlns="http://www.w3.org/2000/svg" width="35" height="35" viewBox="0 0 35 35" fill="none">
          <g clipPath="url(#clip0_58_99)">
          <path d="M6.5625 35L28.4375 35C32.0556 35 35 32.0556 35 28.4375L35 6.5625C35 2.94437 32.0556 0 28.4375 0L6.5625 0C2.94437 0 0 2.94437 0 6.5625L0 28.4375C0 32.0556 2.94437 35 6.5625 35ZM1.45833 6.5625C1.45833 3.74792 3.74792 1.45833 6.5625 1.45833L28.4375 1.45833C31.2521 1.45833 33.5417 3.74792 33.5417 6.5625L33.5417 28.4375C33.5417 31.2521 31.2521 33.5417 28.4375 33.5417L6.5625 33.5417C3.74792 33.5417 1.45833 31.2521 1.45833 28.4375L1.45833 6.5625Z" fill="black"/>
          <path d="M9.47912 18.2292L24.6516 18.2292C24.5598 18.4873 24.4256 18.7323 24.2331 18.9481C23.8452 19.3871 23.4645 19.8042 23.1875 20.0813L19.0633 24.2798C18.7804 24.5671 18.7848 25.0294 19.072 25.3123C19.3608 25.5938 19.8231 25.5909 20.1031 25.3036L24.2229 21.1094C24.5116 20.8206 24.9156 20.3802 25.3254 19.9165C26.546 18.5398 26.546 16.4631 25.3254 15.0865C24.9141 14.6227 24.5102 14.1809 24.2273 13.8979L20.1031 9.6994C19.9602 9.55356 19.772 9.48211 19.5839 9.48211C19.4002 9.48211 19.215 9.5521 19.072 9.69065C18.7848 9.97356 18.7804 10.4344 19.0633 10.7231L23.1918 14.9261C23.4645 15.1988 23.8452 15.6159 24.2345 16.0548C24.4256 16.2706 24.5612 16.5156 24.6516 16.7738L9.47912 16.7738C9.07662 16.7738 8.74996 17.1004 8.74996 17.5029C8.74996 17.9054 9.07662 18.2321 9.47912 18.2321V18.2292Z" fill="black"/>
          </g>
          <defs>
          <clipPath id="clip0_58_99">
          <rect width="35" height="35" fill="white" transform="matrix(-1 0 0 -1 35 35)"/>
          </clipPath>
          </defs>
          </svg>