<svg xmlns="http://www.w3.org/2000/svg" width="44" height="36" viewBox="0 0 44 36" fill="none">
  <g clipPath="url(#clip0_817_59)">
    <path d="M23.0643 0.27325L42.8644 11.2733C43.9231 11.8645 44.3081 13.2051 43.7169 14.2639C43.1256 15.3226 41.785 15.7076 40.7262 15.1164L21.9987 4.7145L3.26433 15.1233C2.20558 15.7145 0.864958 15.3295 0.273708 14.2708C-0.317542 13.212 0.0674577 11.8714 1.12621 11.2801L20.9331 0.27325C21.6 -0.0980005 22.4043 -0.0980005 23.0712 0.27325H23.0643ZM21.9987 10.9983C22.7281 10.9983 23.4275 11.288 23.9433 11.8037C24.459 12.3194 24.7487 13.0189 24.7487 13.7483C24.7487 14.4776 24.459 15.1771 23.9433 15.6928C23.4275 16.2085 22.7281 16.4983 21.9987 16.4983C21.2694 16.4983 20.5699 16.2085 20.0542 15.6928C19.5384 15.1771 19.2487 14.4776 19.2487 13.7483C19.2487 13.0189 19.5384 12.3194 20.0542 11.8037C20.5699 11.288 21.2694 10.9983 21.9987 10.9983ZM9.89871 17.5983C10.6281 17.5983 11.3275 17.888 11.8433 18.4037C12.359 18.9194 12.6487 19.6189 12.6487 20.3483C12.6487 21.0776 12.359 21.7771 11.8433 22.2928C11.3275 22.8085 10.6281 23.0983 9.89871 23.0983C9.16937 23.0983 8.46989 22.8085 7.95417 22.2928C7.43844 21.7771 7.14871 21.0776 7.14871 20.3483C7.14871 19.6189 7.43844 18.9194 7.95417 18.4037C8.46989 17.888 9.16937 17.5983 9.89871 17.5983ZM31.3487 20.3483C31.3487 19.6189 31.6385 18.9194 32.1542 18.4037C32.6699 17.888 33.3694 17.5983 34.0987 17.5983C34.8281 17.5983 35.5275 17.888 36.0433 18.4037C36.559 18.9194 36.8487 19.6189 36.8487 20.3483C36.8487 21.0776 36.559 21.7771 36.0433 22.2928C35.5275 22.8085 34.8281 23.0983 34.0987 23.0983C33.3694 23.0983 32.6699 22.8085 32.1542 22.2928C31.6385 21.7771 31.3487 21.0776 31.3487 20.3483ZM15.5981 33.782L13.7487 30.3514V32.9983C13.7487 34.2151 12.7656 35.1983 11.5487 35.1983H8.24871C7.03184 35.1983 6.04871 34.2151 6.04871 32.9983V30.3514L4.19933 33.782C3.76621 34.5864 2.76933 34.882 1.96496 34.4558C1.16058 34.0295 0.864958 33.0258 1.29121 32.2214L3.89683 27.3883C4.94871 25.4289 6.99746 24.2051 9.22496 24.2051H10.5656C11.6862 24.2051 12.7587 24.5145 13.6868 25.0714L15.9968 20.7883C17.0487 18.8289 19.0975 17.6051 21.325 17.6051H22.6656C24.8931 17.6051 26.935 18.8289 27.9937 20.7883L30.3037 25.0714C31.2318 24.5145 32.3043 24.2051 33.425 24.2051H34.7656C36.9931 24.2051 39.035 25.4289 40.0937 27.3883L42.6994 32.2214C43.1325 33.0258 42.83 34.0226 42.0256 34.4558C41.2212 34.8889 40.2244 34.5864 39.7912 33.782L37.9487 30.3514V32.9983C37.9487 34.2151 36.9656 35.1983 35.7487 35.1983H32.4487C31.2318 35.1983 30.2487 34.2151 30.2487 32.9983V30.3514L28.3993 33.782C27.9662 34.5864 26.9693 34.882 26.165 34.4558C25.3606 34.0295 25.065 33.0258 25.4912 32.2214L27.9868 27.5808C27.87 27.4639 27.7668 27.3333 27.6912 27.182L25.8487 23.7514V27.4983C25.8487 28.7151 24.8656 29.6983 23.6487 29.6983H20.3487C19.1318 29.6983 18.1487 28.7151 18.1487 27.4983V23.7514L16.2993 27.182C16.2168 27.3333 16.1206 27.4639 16.0037 27.5808L18.4993 32.2214C18.9325 33.0258 18.63 34.0226 17.8256 34.4558C17.0212 34.8889 16.0243 34.5864 15.5912 33.782H15.5981Z" fill="#00C0CC"/>
  </g>
  <defs>
    <clipPath id="clip0_817_59">
      <rect width="44" height="35.2" fill="white"/>
    </clipPath>
  </defs>
</svg>