<svg width="72" height="72" viewBox="0 0 72 72" fill="none" xmlns="http://www.w3.org/2000/svg">
            <circle cx="36" cy="36" r="36" fill="#D5EFF9" />
            <g clipPath="url(#clip0_127_7)">
              <path
                d="M41.5 18H26.5C22.3645 18 19 21.3645 19 25.5V46.5C19 50.6355 22.3645 54 26.5 54H41.5C45.6355 54 49 50.6355 49 46.5V25.5C49 21.3645 45.6355 18 41.5 18ZM31 46.5C31 47.328 30.328 48 29.5 48H26.5C25.672 48 25 47.328 25 46.5V43.5C25 42.672 25.672 42 26.5 42H29.5C30.328 42 31 42.672 31 43.5V46.5ZM31 37.5C31 38.328 30.328 39 29.5 39H26.5C25.672 39 25 38.328 25 37.5V34.5C25 33.672 25.672 33 26.5 33H29.5C30.328 33 31 33.672 31 34.5V37.5ZM31 28.5C31 29.328 30.328 30 29.5 30H26.5C25.672 30 25 29.328 25 28.5V25.5C25 24.672 25.672 24 26.5 24H29.5C30.328 24 31 24.672 31 25.5V28.5ZM41.5 46.5H35.5C33.538 46.491 33.5395 43.509 35.5 43.5H41.5C43.462 43.509 43.4605 46.491 41.5 46.5ZM41.5 37.5H35.5C33.538 37.491 33.5395 34.509 35.5 34.5H41.5C43.462 34.509 43.4605 37.491 41.5 37.5ZM41.5 28.5H35.5C33.538 28.491 33.5395 25.509 35.5 25.5H41.5C43.462 25.509 43.4605 28.491 41.5 28.5Z"
                fill="#00C0CC"
              />
            </g>
            <defs>
              <clipPath id="clip0_127_7">
                <rect width="36" height="36" fill="white" transform="translate(16 18)" />
              </clipPath>
            </defs>
          </svg>