<svg xmlns="http://www.w3.org/2000/svg" width="23" height="23" viewBox="0 0 23 23" fill="none">
  <g clipPath="url(#clip0_823_28)">
    <path d="M11.5 1.4375C12.1379 1.4375 12.7264 1.77441 13.0498 2.32695L22.7529 18.8582C23.0809 19.4152 23.0809 20.1025 22.7619 20.6596C22.443 21.2166 21.8455 21.5625 21.2031 21.5625H1.79687C1.15448 21.5625 0.557021 21.2166 0.238076 20.6596C-0.0808695 20.1025 -0.0763773 19.4107 0.24706 18.8582L9.95019 2.32695C10.2736 1.77441 10.8621 1.4375 11.5 1.4375ZM11.5 7.1875C10.9025 7.1875 10.4219 7.66816 10.4219 8.26562V13.2969C10.4219 13.8943 10.9025 14.375 11.5 14.375C12.0975 14.375 12.5781 13.8943 12.5781 13.2969V8.26562C12.5781 7.66816 12.0975 7.1875 11.5 7.1875ZM12.9375 17.25C12.9375 16.8688 12.786 16.5031 12.5165 16.2335C12.2469 15.964 11.8812 15.8125 11.5 15.8125C11.1187 15.8125 10.7531 15.964 10.4835 16.2335C10.2139 16.5031 10.0625 16.8688 10.0625 17.25C10.0625 17.6312 10.2139 17.9969 10.4835 18.2665C10.7531 18.536 11.1187 18.6875 11.5 18.6875C11.8812 18.6875 12.2469 18.536 12.5165 18.2665C12.786 17.9969 12.9375 17.6312 12.9375 17.25Z" fill="#9A6700"/>
  </g>
  <defs>
    <clipPath id="clip0_823_28">
      <rect width="23" height="23" fill="white"/>
    </clipPath>
  </defs>
</svg>